# xmcd
#
# Track frame offsets:
#	150
#	9675
#	29200
#	38360
#	54165
#	56457
#	67265
#
# Disc length: 1167 seconds
#
# Revision: 1
# Processed by: cddbd v1.5.1PL0 Copyright (c) Steve Scherf et al.
# Submitted via: CDex 1.50Beta5
#
DISCID=59048d07
DTITLE=柴田由美子 - みつめていいよ 夏休み特刊号 香澄ディスク
DYEAR=1900
DGENRE=Anime
TTITLE0=元気! IN SUMMER
TTITLE1=ABCから始めたい
TTITLE2=おねえちゃんへ……かすみより
TTITLE3=REMEMBER THE SUMMER
TTITLE4=IN THE BATHROOM
TTITLE5=オニの居ぬ間に……?
TTITLE6=いつかきっと…
EXTD=
EXTT0=
EXTT1=
EXTT2=
EXTT3=
EXTT4=
EXTT5=
EXTT6=
PLAYORDER=
